<svg width="21" height="20" viewBox="0 0 21 20" fill="none" xmlns="http://www.w3.org/2000/svg">
<mask id="path-1-inside-1_4375_4541" fill="white">
<path d="M2.16724 7.22188C2.16724 6.91502 2.416 6.66626 2.72286 6.66626H8.27828C8.58514 6.66626 8.8339 6.91502 8.8339 7.22188V18.3329H2.16724V7.22188Z"/>
</mask>
<path d="M2.16724 7.22188C2.16724 6.91502 2.416 6.66626 2.72286 6.66626H8.27828C8.58514 6.66626 8.8339 6.91502 8.8339 7.22188V18.3329H2.16724V7.22188Z" fill="#5EA3FF" stroke="#5EA3FF" stroke-width="1.55574" mask="url(#path-1-inside-1_4375_4541)"/>
<path d="M12.1672 0.555377C12.1672 0.248516 12.416 -0.000244141 12.7229 -0.000244141H18.2783C18.5851 -0.000244141 18.8339 0.248515 18.8339 0.555376V18.3331H12.1672V0.555377Z" fill="#E7685A"/>
<rect x="0.917643" y="18.7499" width="19.1667" height="0.833333" stroke="#5EA3FF" stroke-width="0.833333"/>
</svg>
