<svg width="20" height="21" viewBox="0 0 20 21" fill="none" xmlns="http://www.w3.org/2000/svg">
<path d="M2.5 10.6675H3.33333M10 3.16748V4.00081M16.6667 10.6675H17.5M4.66667 5.33415L5.25 5.91748M15.3333 5.33415L14.75 5.91748M8.08333 14.8341H11.9167M7.5 14.0008C6.80039 13.4761 6.28361 12.7446 6.02286 11.9098C5.76211 11.0751 5.77061 10.1795 6.04715 9.34986C6.3237 8.52023 6.85427 7.79864 7.56371 7.2873C8.27315 6.77597 9.12549 6.50081 10 6.50081C10.8745 6.50081 11.7269 6.77597 12.4363 7.2873C13.1457 7.79864 13.6763 8.52023 13.9528 9.34986C14.2294 10.1795 14.2379 11.0751 13.9771 11.9098C13.7164 12.7446 13.1996 13.4761 12.5 14.0008C12.1746 14.3229 11.9297 14.717 11.7849 15.1513C11.6401 15.5856 11.5996 16.0479 11.6667 16.5008C11.6667 16.9428 11.4911 17.3668 11.1785 17.6793C10.866 17.9919 10.442 18.1675 10 18.1675C9.55797 18.1675 9.13405 17.9919 8.82149 17.6793C8.50893 17.3668 8.33333 16.9428 8.33333 16.5008C8.40038 16.0479 8.35988 15.5856 8.21511 15.1513C8.07034 14.717 7.82536 14.3229 7.5 14.0008Z" stroke="#FFC247" stroke-width="2" stroke-linecap="round" stroke-linejoin="round"/>
</svg>
