<svg width="17" height="18" viewBox="0 0 17 18" fill="none" xmlns="http://www.w3.org/2000/svg">
<path d="M15.251 0.9375H1.75098C1.40288 0.9375 1.06904 1.07578 0.822899 1.32192C0.576757 1.56806 0.438477 1.9019 0.438477 2.25V15.75C0.438477 16.0981 0.576757 16.4319 0.822899 16.6781C1.06904 16.9242 1.40288 17.0625 1.75098 17.0625H15.251C15.5991 17.0625 15.9329 16.9242 16.1791 16.6781C16.4252 16.4319 16.5635 16.0981 16.5635 15.75V2.25C16.5635 1.9019 16.4252 1.56806 16.1791 1.32192C15.9329 1.07578 15.5991 0.9375 15.251 0.9375ZM15.4385 2.25V8.4375H9.06348V2.0625H15.251C15.3007 2.0625 15.3484 2.08225 15.3836 2.11742C15.4187 2.15258 15.4385 2.20027 15.4385 2.25ZM1.75098 2.0625H7.93848V8.4375H1.56348V2.25C1.56348 2.20027 1.58323 2.15258 1.61839 2.11742C1.65356 2.08225 1.70125 2.0625 1.75098 2.0625ZM1.56348 15.75V9.5625H7.93848V15.9375H1.75098C1.70125 15.9375 1.65356 15.9177 1.61839 15.8826C1.58323 15.8474 1.56348 15.7997 1.56348 15.75ZM15.251 15.9375H9.06348V9.5625H15.4385V15.75C15.4385 15.7997 15.4187 15.8474 15.3836 15.8826C15.3484 15.9177 15.3007 15.9375 15.251 15.9375Z" fill="#05945B"/>
</svg>
