<svg width="21" height="20" viewBox="0 0 21 20" fill="none" xmlns="http://www.w3.org/2000/svg" stroke-width="1.5" stroke="#262626">
    <path d="M17.5939 8.10116L11.3439 2.42148C11.1135 2.21066 10.8125 2.09375 10.5002 2.09375C10.1879 2.09375 9.88685 2.21066 9.65642 2.42148L3.40642 8.10116C3.27845 8.21823 3.17625 8.36065 3.10631 8.51936C3.03637 8.67807 3.00022 8.8496 3.00017 9.02304V16.2184C2.99509 16.5335 3.10634 16.8395 3.31267 17.0777C3.42977 17.2109 3.57402 17.3174 3.73573 17.3902C3.89743 17.463 4.07284 17.5003 4.25017 17.4996H8.00017C8.16593 17.4996 8.3249 17.4338 8.44211 17.3165C8.55932 17.1993 8.62517 17.0404 8.62517 16.8746V13.1246C8.62517 12.9588 8.69102 12.7999 8.80823 12.6827C8.92544 12.5654 9.08441 12.4996 9.25017 12.4996H11.7502C11.9159 12.4996 12.0749 12.5654 12.1921 12.6827C12.3093 12.7999 12.3752 12.9588 12.3752 13.1246V16.8746C12.3752 17.0404 12.441 17.1993 12.5582 17.3165C12.6754 17.4338 12.8344 17.4996 13.0002 17.4996H16.7502C16.9575 17.5014 17.1618 17.4503 17.3439 17.3512C17.542 17.2433 17.7075 17.0841 17.8229 16.8903C17.9384 16.6965 17.9996 16.4752 18.0002 16.2496V9.02304C18.0001 8.8496 17.964 8.67807 17.894 8.51936C17.8241 8.36065 17.7219 8.21823 17.5939 8.10116Z" fill="#262626"/>
</svg>
