<svg width="16" height="16" viewBox="0 0 16 16" fill="none" xmlns="http://www.w3.org/2000/svg">
<path d="M1.75 0.5C1.41848 0.5 1.10054 0.631696 0.866117 0.866117C0.631696 1.10054 0.5 1.41848 0.5 1.75V14.25C0.5 14.5815 0.631696 14.8995 0.866117 15.1339C1.10054 15.3683 1.41848 15.5 1.75 15.5H6.125C6.47018 15.5 6.75 15.2202 6.75 14.875C6.75 14.5298 6.47018 14.25 6.125 14.25H1.75L1.75 1.75L6.125 1.75C6.47018 1.75 6.75 1.47018 6.75 1.125C6.75 0.779822 6.47018 0.5 6.125 0.5H1.75Z" fill="#262626"/>
<path d="M11.1518 4.27681C11.3959 4.03273 11.7916 4.03273 12.0357 4.27681L15.3169 7.55806C15.3769 7.61798 15.4221 7.68704 15.4526 7.76076C15.4831 7.83445 15.5 7.91526 15.5 8C15.5 8.15995 15.439 8.3199 15.3169 8.44194L12.0357 11.7232C11.7916 11.9673 11.3959 11.9673 11.1518 11.7232C10.9077 11.4791 10.9077 11.0834 11.1518 10.8393L13.3661 8.625H6.125C5.77982 8.625 5.5 8.34518 5.5 8C5.5 7.65482 5.77982 7.375 6.125 7.375H13.3661L11.1518 5.16069C10.9077 4.91661 10.9077 4.52089 11.1518 4.27681Z" fill="#262626"/>
</svg>
