<svg width="64" height="64" viewBox="0 0 64 64" fill="none" xmlns="http://www.w3.org/2000/svg">
<path d="M20 32C20 30.8954 20.8954 30 22 30H30V22C30 20.8954 30.8954 20 32 20C33.1046 20 34 20.8954 34 22V30H42C43.1046 30 44 30.8954 44 32C44 33.1046 43.1046 34 42 34H34V42C34 43.1046 33.1046 44 32 44C30.8954 44 30 43.1046 30 42V34H22C20.8954 34 20 33.1046 20 32Z" fill="#B0B0B0"/>
<path fill-rule="evenodd" clip-rule="evenodd" d="M6 32C6 17.6406 17.6406 6 32 6C46.3594 6 58 17.6406 58 32C58 46.3594 46.3594 58 32 58C17.6406 58 6 46.3594 6 32ZM32 10C19.8497 10 10 19.8497 10 32C10 44.1503 19.8497 54 32 54C44.1503 54 54 44.1503 54 32C54 19.8497 44.1503 10 32 10Z" fill="#B0B0B0"/>
</svg>
