<svg width="20" height="20" viewBox="0 0 20 20" fill="none" xmlns="http://www.w3.org/2000/svg">
<path fill-rule="evenodd" clip-rule="evenodd" d="M7.37305 4.22314C7.37305 3.99303 7.5596 3.80648 7.78972 3.80648H12.7897C13.0198 3.80648 13.2064 3.99303 13.2064 4.22314V5.05648H7.37305V4.22314ZM6.53972 5.05648L3.62295 5.05648C2.70248 5.05648 1.95628 5.80267 1.95628 6.72314V10.0468C1.95614 10.0532 1.95614 10.0595 1.95628 10.0658V15.8898C1.95628 16.8103 2.70248 17.5565 3.62295 17.5565H16.9563C17.8768 17.5565 18.623 16.8103 18.623 15.8898V6.72314C18.623 5.80267 17.8768 5.05648 16.9563 5.05648L14.0397 5.05648V4.22314C14.0397 3.53279 13.4801 2.97314 12.7897 2.97314H7.78972C7.09936 2.97314 6.53972 3.53279 6.53972 4.22314V5.05648ZM2.78962 10.6798V15.8898C2.78962 16.35 3.16271 16.7231 3.62295 16.7231H16.9563C17.4165 16.7231 17.7896 16.3501 17.7896 15.8898V10.5224C15.0215 11.8981 12.7472 12.5674 10.3608 12.5471C8.07684 12.5278 5.72897 11.8768 2.78962 10.6798ZM17.7896 9.63972V6.72314C17.7896 6.26291 17.4165 5.88981 16.9563 5.88981H3.62295C3.16271 5.88981 2.78962 6.26291 2.78962 6.72314V9.77884C5.84508 11.0451 8.16146 11.6951 10.3678 11.7138C12.6267 11.733 14.8144 11.0903 17.602 9.68445C17.6623 9.65405 17.7264 9.63967 17.7896 9.63972ZM8.20629 9.63981C8.20629 9.40969 8.39283 9.22315 8.62295 9.22315H11.9563C12.1864 9.22315 12.373 9.40969 12.373 9.63981C12.373 9.86993 12.1864 10.0565 11.9563 10.0565H8.62295C8.39283 10.0565 8.20629 9.86993 8.20629 9.63981Z" fill="#545454"/>
<path d="M13.2064 5.05648V5.25648H13.4064V5.05648H13.2064ZM7.37305 5.05648H7.17305V5.25648H7.37305V5.05648ZM3.62295 5.05648L3.62295 5.25648L3.62295 5.25648L3.62295 5.05648ZM6.53972 5.05648L6.53972 5.25648L6.73972 5.25648V5.05648H6.53972ZM1.95628 10.0468L2.15628 10.0514V10.0468H1.95628ZM1.95628 10.0658L2.15634 10.0658L2.15623 10.0612L1.95628 10.0658ZM16.9563 5.05648L16.9563 5.25648H16.9563V5.05648ZM14.0397 5.05648H13.8397V5.25648L14.0397 5.25648L14.0397 5.05648ZM2.78962 10.6798L2.86505 10.4945L2.58962 10.3824V10.6798H2.78962ZM17.7896 10.5224H17.9896V10.1997L17.7006 10.3433L17.7896 10.5224ZM10.3608 12.5471L10.3625 12.3471L10.3625 12.3471L10.3608 12.5471ZM17.7896 9.63972L17.7895 9.83972L17.9896 9.83988V9.63972H17.7896ZM2.78962 9.77884H2.58962V9.91245L2.71305 9.9636L2.78962 9.77884ZM10.3678 11.7138L10.3661 11.9138L10.3661 11.9138L10.3678 11.7138ZM17.602 9.68445L17.6921 9.86302L17.6921 9.86302L17.602 9.68445ZM7.78972 3.60648C7.44914 3.60648 7.17305 3.88257 7.17305 4.22314H7.57305C7.57305 4.10348 7.67006 4.00648 7.78972 4.00648V3.60648ZM12.7897 3.60648H7.78972V4.00648H12.7897V3.60648ZM13.4064 4.22314C13.4064 3.88257 13.1303 3.60648 12.7897 3.60648V4.00648C12.9094 4.00648 13.0064 4.10348 13.0064 4.22314H13.4064ZM13.4064 5.05648V4.22314H13.0064V5.05648H13.4064ZM7.37305 5.25648H13.2064V4.85648H7.37305V5.25648ZM7.17305 4.22314V5.05648H7.57305V4.22314H7.17305ZM3.62295 5.25648L6.53972 5.25648L6.53972 4.85648L3.62295 4.85648L3.62295 5.25648ZM2.15628 6.72314C2.15628 5.91312 2.81294 5.25648 3.62295 5.25648V4.85648C2.59202 4.85648 1.75628 5.69221 1.75628 6.72314H2.15628ZM2.15628 10.0468V6.72314H1.75628V10.0468H2.15628ZM2.15623 10.0612C2.15616 10.0579 2.15616 10.0547 2.15623 10.0514L1.75634 10.0423C1.75612 10.0516 1.75612 10.061 1.75634 10.0703L2.15623 10.0612ZM2.15628 15.8898V10.0658H1.75628V15.8898H2.15628ZM3.62295 17.3565C2.81293 17.3565 2.15628 16.6998 2.15628 15.8898H1.75628C1.75628 16.9207 2.59202 17.7565 3.62295 17.7565V17.3565ZM16.9563 17.3565H3.62295V17.7565H16.9563V17.3565ZM18.423 15.8898C18.423 16.6998 17.7663 17.3565 16.9563 17.3565V17.7565C17.9872 17.7565 18.823 16.9207 18.823 15.8898H18.423ZM18.423 6.72314V15.8898H18.823V6.72314H18.423ZM16.9563 5.25648C17.7663 5.25648 18.423 5.91313 18.423 6.72314H18.823C18.823 5.69221 17.9872 4.85648 16.9563 4.85648V5.25648ZM14.0397 5.25648L16.9563 5.25648L16.9563 4.85648L14.0397 4.85648L14.0397 5.25648ZM13.8397 4.22314V5.05648H14.2397V4.22314H13.8397ZM12.7897 3.17314C13.3696 3.17314 13.8397 3.64325 13.8397 4.22314H14.2397C14.2397 3.42233 13.5905 2.77314 12.7897 2.77314V3.17314ZM7.78972 3.17314H12.7897V2.77314H7.78972V3.17314ZM6.73972 4.22314C6.73972 3.64325 7.20982 3.17314 7.78972 3.17314V2.77314C6.98891 2.77314 6.33972 3.42233 6.33972 4.22314H6.73972ZM6.73972 5.05648V4.22314H6.33972V5.05648H6.73972ZM2.58962 10.6798V15.8898H2.98962V10.6798H2.58962ZM2.58962 15.8898C2.58962 16.4605 3.05226 16.9231 3.62295 16.9231V16.5231C3.27317 16.5231 2.98962 16.2396 2.98962 15.8898H2.58962ZM3.62295 16.9231H16.9563V16.5231H3.62295V16.9231ZM16.9563 16.9231C17.527 16.9231 17.9896 16.4605 17.9896 15.8898H17.5896C17.5896 16.2396 17.3061 16.5231 16.9563 16.5231V16.9231ZM17.9896 15.8898V10.5224H17.5896V15.8898H17.9896ZM17.7006 10.3433C14.9487 11.7109 12.7064 12.367 10.3625 12.3471L10.3591 12.7471C12.7881 12.7677 15.0942 12.0853 17.8786 10.7016L17.7006 10.3433ZM10.3625 12.3471C8.11583 12.3281 5.79551 11.688 2.86505 10.4945L2.71419 10.865C5.66242 12.0657 8.03785 12.7274 10.3591 12.7471L10.3625 12.3471ZM17.9896 9.63972V6.72314H17.5896V9.63972H17.9896ZM17.9896 6.72314C17.9896 6.15245 17.527 5.68981 16.9563 5.68981V6.08981C17.3061 6.08981 17.5896 6.37336 17.5896 6.72314H17.9896ZM16.9563 5.68981H3.62295V6.08981H16.9563V5.68981ZM3.62295 5.68981C3.05226 5.68981 2.58962 6.15245 2.58962 6.72314H2.98962C2.98962 6.37336 3.27317 6.08981 3.62295 6.08981V5.68981ZM2.58962 6.72314V9.77884H2.98962V6.72314H2.58962ZM2.71305 9.9636C5.77655 11.2332 8.12127 11.8948 10.3661 11.9138L10.3695 11.5138C8.20166 11.4955 5.9136 10.857 2.86619 9.59408L2.71305 9.9636ZM10.3661 11.9138C12.6686 11.9333 14.8886 11.2769 17.6921 9.86302L17.5119 9.50587C14.7401 10.9038 12.5849 11.5326 10.3695 11.5138L10.3661 11.9138ZM17.6921 9.86302C17.7237 9.84705 17.7569 9.8397 17.7895 9.83972L17.7898 9.43972C17.696 9.43965 17.6008 9.46104 17.5119 9.50587L17.6921 9.86302ZM8.62295 9.02315C8.28238 9.02315 8.00629 9.29924 8.00629 9.63981H8.40629C8.40629 9.52015 8.50329 9.42315 8.62295 9.42315V9.02315ZM11.9563 9.02315H8.62295V9.42315H11.9563V9.02315ZM12.573 9.63981C12.573 9.29924 12.2969 9.02315 11.9563 9.02315V9.42315C12.0759 9.42315 12.173 9.52015 12.173 9.63981H12.573ZM11.9563 10.2565C12.2969 10.2565 12.573 9.98039 12.573 9.63981H12.173C12.173 9.75947 12.0759 9.85648 11.9563 9.85648V10.2565ZM8.62295 10.2565H11.9563V9.85648H8.62295V10.2565ZM8.00629 9.63981C8.00629 9.98039 8.28238 10.2565 8.62295 10.2565V9.85648C8.50329 9.85648 8.40629 9.75947 8.40629 9.63981H8.00629Z" fill="#545454"/>
</svg>
