<svg width="18" height="18" viewBox="0 0 18 18" fill="none" xmlns="http://www.w3.org/2000/svg">
<path d="M9.00016 5.25004C8.25848 5.25004 7.53345 5.46997 6.91677 5.88202C6.30009 6.29408 5.81944 6.87975 5.53561 7.56497C5.25178 8.2502 5.17752 9.0042 5.32221 9.73162C5.46691 10.4591 5.82406 11.1272 6.34851 11.6517C6.87295 12.1761 7.54114 12.5333 8.26857 12.678C8.996 12.8227 9.75 12.7484 10.4352 12.4646C11.1204 12.1808 11.7061 11.7001 12.1182 11.0834C12.5302 10.4667 12.7502 9.74172 12.7502 9.00004C12.7491 8.00579 12.3537 7.05256 11.6507 6.34953C10.9476 5.64649 9.9944 5.25107 9.00016 5.25004ZM9.00016 11.5C8.5057 11.5 8.02236 11.3534 7.61123 11.0787C7.20011 10.804 6.87968 10.4136 6.69046 9.95674C6.50124 9.49993 6.45173 8.99726 6.54819 8.51231C6.64466 8.02736 6.88276 7.5819 7.23239 7.23227C7.58202 6.88264 8.02748 6.64454 8.51243 6.54807C8.99739 6.45161 9.50005 6.50112 9.95687 6.69034C10.4137 6.87956 10.8041 7.19999 11.0788 7.61111C11.3535 8.02223 11.5002 8.50558 11.5002 9.00004C11.5002 9.66308 11.2368 10.299 10.7679 10.7678C10.2991 11.2366 9.6632 11.5 9.00016 11.5ZM15.8752 9.16879C15.8783 9.05629 15.8783 8.94379 15.8752 8.83129L17.0408 7.37504C17.1019 7.29858 17.1442 7.20883 17.1643 7.11303C17.1844 7.01722 17.1817 6.91804 17.1564 6.82347C16.9653 6.10519 16.6795 5.41554 16.3064 4.77269C16.2576 4.68857 16.1897 4.617 16.1084 4.5637C16.027 4.5104 15.9343 4.47683 15.8377 4.46566L13.9845 4.25941C13.9074 4.17816 13.8293 4.10004 13.7502 4.02504L13.5314 2.16722C13.5202 2.07051 13.4865 1.97777 13.433 1.89639C13.3796 1.815 13.3079 1.74723 13.2236 1.69847C12.5805 1.32608 11.8909 1.04052 11.1728 0.849254C11.0782 0.824096 10.979 0.821523 10.8832 0.841742C10.7874 0.861962 10.6976 0.904408 10.6213 0.965661L9.16891 2.12504H8.83141L7.37516 0.961754C7.2987 0.900636 7.20895 0.858331 7.11315 0.838248C7.01734 0.818164 6.91816 0.820864 6.8236 0.846129C6.10543 1.03756 5.41583 1.32338 4.77281 1.69613C4.68869 1.74498 4.61712 1.81279 4.56382 1.89417C4.51052 1.97555 4.47695 2.06824 4.46578 2.16488L4.25953 4.02113C4.17828 4.09873 4.10016 4.17686 4.02516 4.2555L2.16735 4.46879C2.07064 4.48004 1.97789 4.51373 1.89651 4.56717C1.81513 4.62061 1.74735 4.69233 1.6986 4.7766C1.3262 5.41969 1.04064 6.10928 0.849376 6.82738C0.824218 6.92201 0.821645 7.02122 0.841864 7.11703C0.862084 7.21284 0.90453 7.30255 0.965783 7.37894L2.12516 8.83129V9.16879L0.961877 10.625C0.900758 10.7015 0.858453 10.7912 0.83837 10.887C0.818286 10.9828 0.820986 11.082 0.846251 11.1766C1.03733 11.8949 1.32317 12.5845 1.69625 13.2274C1.7451 13.3115 1.81291 13.3831 1.89429 13.4364C1.97567 13.4897 2.06836 13.5232 2.165 13.5344L4.01813 13.7407C4.09573 13.8219 4.17386 13.9 4.2525 13.975L4.46891 15.8328C4.48016 15.9296 4.51385 16.0223 4.56729 16.1037C4.62073 16.1851 4.69245 16.2528 4.77672 16.3016C5.41981 16.674 6.10941 16.9595 6.8275 17.1508C6.92213 17.176 7.02135 17.1785 7.11715 17.1583C7.21296 17.1381 7.30267 17.0957 7.37906 17.0344L8.83141 15.875C8.94391 15.8782 9.05641 15.8782 9.16891 15.875L10.6252 17.0407C10.7016 17.1018 10.7914 17.1441 10.8872 17.1642C10.983 17.1842 11.0822 17.1816 11.1767 17.1563C11.895 16.9652 12.5847 16.6794 13.2275 16.3063C13.3116 16.2574 13.3832 16.1896 13.4365 16.1082C13.4898 16.0269 13.5234 15.9342 13.5345 15.8375L13.7408 13.9844C13.822 13.9073 13.9002 13.8292 13.9752 13.75L15.833 13.5313C15.9297 13.52 16.0224 13.4863 16.1038 13.4329C16.1852 13.3795 16.253 13.3077 16.3017 13.2235C16.6741 12.5804 16.9597 11.8908 17.1509 11.1727C17.1761 11.0781 17.1787 10.9788 17.1585 10.883C17.1382 10.7872 17.0958 10.6975 17.0345 10.6211L15.8752 9.16879ZM14.6173 8.66097C14.6306 8.88682 14.6306 9.11325 14.6173 9.3391C14.608 9.49372 14.6565 9.64629 14.7533 9.76722L15.8619 11.1524C15.7347 11.5566 15.5718 11.9488 15.3752 12.3243L13.6095 12.5243C13.4558 12.5413 13.3138 12.6148 13.2111 12.7305C13.0607 12.8997 12.9006 13.0598 12.7314 13.2102C12.6157 13.3129 12.5422 13.4549 12.5252 13.6086L12.3291 15.3727C11.9537 15.5694 11.5615 15.7323 11.1572 15.8594L9.77125 14.7508C9.66035 14.6622 9.52258 14.614 9.38063 14.6141H9.34313C9.11728 14.6274 8.89085 14.6274 8.665 14.6141C8.51038 14.6048 8.35781 14.6532 8.23688 14.75L6.84781 15.8594C6.44355 15.7322 6.05138 15.5693 5.67594 15.3727L5.47594 13.6094C5.45887 13.4556 5.38538 13.3137 5.26969 13.211C5.10054 13.0606 4.94037 12.9004 4.79 12.7313C4.68729 12.6156 4.54533 12.5421 4.39156 12.525L2.6275 12.3282C2.43077 11.9528 2.26788 11.5606 2.14078 11.1563L3.24938 9.77035C3.34618 9.64942 3.39462 9.49685 3.38531 9.34222C3.37205 9.11638 3.37205 8.88995 3.38531 8.6641C3.39462 8.50947 3.34618 8.3569 3.24938 8.23597L2.14078 6.84769C2.268 6.44343 2.43088 6.05126 2.6275 5.67582L4.39078 5.47582C4.54454 5.45875 4.68651 5.38526 4.78922 5.26957C4.93959 5.10042 5.09976 4.94025 5.26891 4.78988C5.38506 4.6871 5.45885 4.54481 5.47594 4.39066L5.67203 2.62738C6.04742 2.43065 6.4396 2.26776 6.84391 2.14066L8.22985 3.24925C8.35078 3.34606 8.50335 3.3945 8.65797 3.38519C8.88382 3.37192 9.11025 3.37192 9.3361 3.38519C9.49072 3.3945 9.64329 3.34606 9.76422 3.24925L11.1525 2.14066C11.5568 2.26788 11.9489 2.43076 12.3244 2.62738L12.5244 4.39066C12.5414 4.54442 12.6149 4.68639 12.7306 4.7891C12.8998 4.93947 13.0599 5.09964 13.2103 5.26879C13.313 5.38448 13.455 5.45797 13.6088 5.47504L15.3728 5.67113C15.5695 6.04652 15.7324 6.4387 15.8595 6.843L14.7509 8.22894C14.6532 8.35089 14.6047 8.50503 14.615 8.66097H14.6173Z" fill="#757575"/>
</svg>
