<svg width="44" height="45" viewBox="0 0 44 45" fill="none" xmlns="http://www.w3.org/2000/svg">
<path d="M4.58398 22.3337C4.58398 14.1234 4.58398 10.0182 7.13459 7.4676C9.68522 4.91699 13.7904 4.91699 22.0007 4.91699C30.2109 4.91699 34.3161 4.91699 36.8668 7.4676C39.4173 10.0182 39.4173 14.1234 39.4173 22.3337C39.4173 30.5439 39.4173 34.6491 36.8668 37.1998C34.3161 39.7503 30.2109 39.7503 22.0007 39.7503C13.7904 39.7503 9.68522 39.7503 7.13459 37.1998C4.58398 34.6491 4.58398 30.5439 4.58398 22.3337Z" stroke="#00BD1C" stroke-width="2.75"/>
<path d="M4.58398 22.333H39.4173" stroke="#00BD1C" stroke-width="2.75" stroke-linecap="round" stroke-linejoin="round"/>
<path d="M23.834 13.167H31.1673" stroke="#00BD1C" stroke-width="2.75" stroke-linecap="round" stroke-linejoin="round"/>
<path d="M15.1257 15.4583C16.3913 15.4583 17.4173 14.4323 17.4173 13.1667C17.4173 11.901 16.3913 10.875 15.1257 10.875C13.86 10.875 12.834 11.901 12.834 13.1667C12.834 14.4323 13.86 15.4583 15.1257 15.4583Z" stroke="#00BD1C" stroke-width="2.75" stroke-linecap="round" stroke-linejoin="round"/>
<path d="M15.1257 33.7913C16.3913 33.7913 17.4173 32.7653 17.4173 31.4997C17.4173 30.234 16.3913 29.208 15.1257 29.208C13.86 29.208 12.834 30.234 12.834 31.4997C12.834 32.7653 13.86 33.7913 15.1257 33.7913Z" stroke="#00BD1C" stroke-width="2.75" stroke-linecap="round" stroke-linejoin="round"/>
<path d="M23.834 31.5H31.1673" stroke="#00BD1C" stroke-width="2.75" stroke-linecap="round" stroke-linejoin="round"/>
</svg>
