<svg width="45" height="44" viewBox="0 0 45 44" fill="none" xmlns="http://www.w3.org/2000/svg">
<path d="M34.1603 14.4907L34.1603 14.4906C34.2314 14.32 34.3982 14.2087 34.5833 14.2087H35.2708L34.6538 15.6894L31.2163 23.9394L30.6875 25.2087H32.0625H38.9375H40.3125L39.7837 23.9394L36.3462 15.6894L35.7292 14.2087H36.4167C36.6018 14.2087 36.7686 14.32 36.8397 14.4906L36.8397 14.4907L41.4231 25.4906L41.4231 25.4908C41.4463 25.5464 41.4583 25.6064 41.4583 25.667C41.4583 28.9577 38.7908 31.6253 35.5 31.6253C32.2092 31.6253 29.5417 28.9577 29.5417 25.667C29.5417 25.6064 29.5537 25.5464 29.5769 25.4908L29.5769 25.4906L34.1603 14.4907Z" fill="white" stroke="#00BD1C" stroke-width="1.83333"/>
<path d="M23.5827 36.2087V37.1253H24.4993H31.8327C32.339 37.1253 32.7493 37.5357 32.7493 38.042C32.7493 38.5483 32.339 38.9587 31.8327 38.9587H13.4993C12.9931 38.9587 12.5827 38.5483 12.5827 38.042C12.5827 37.5357 12.9931 37.1253 13.4993 37.1253H20.8327H21.7493V36.2087V12.3753C21.7493 11.8691 22.1597 11.4587 22.666 11.4587C23.1723 11.4587 23.5827 11.8691 23.5827 12.3753V36.2087Z" fill="white" stroke="#00BD1C" stroke-width="1.83333"/>
<path d="M7.08268 9.16634C7.08268 8.66009 7.4931 8.24967 7.99935 8.24967H18.9993C19.5056 8.24967 19.916 8.66008 19.916 9.16634C19.916 9.67261 19.5056 10.083 18.9993 10.083H7.99935C7.4931 10.083 7.08268 9.67259 7.08268 9.16634ZM25.416 9.16634C25.416 8.66008 25.8264 8.24967 26.3327 8.24967H37.3327C37.839 8.24967 38.2493 8.66008 38.2493 9.16634C38.2493 9.67261 37.839 10.083 37.3327 10.083H26.3327C25.8264 10.083 25.416 9.67261 25.416 9.16634Z" fill="white" stroke="#00BD1C" stroke-width="1.83333"/>
<path d="M18.5417 9.16667C18.5417 6.88849 20.3885 5.04167 22.6667 5.04167C24.9449 5.04167 26.7917 6.88849 26.7917 9.16667C26.7917 11.4448 24.9449 13.2917 22.6667 13.2917C20.3885 13.2917 18.5417 11.4448 18.5417 9.16667Z" fill="white" stroke="#00BD1C" stroke-width="1.83333"/>
<path d="M8.49424 14.4907L8.49424 14.4907C8.5654 14.3199 8.73227 14.2087 8.91732 14.2087H9.60482L8.98783 15.6894L5.55033 23.9394L5.02148 25.2087H6.39648H13.2715H14.6465L14.1176 23.9394L10.6801 15.6894L10.0632 14.2087H10.7507C10.9357 14.2087 11.1026 14.3199 11.1737 14.4907L11.1737 14.4907L15.7571 25.4906C15.7571 25.4906 15.7571 25.4906 15.7571 25.4906C15.7803 25.5465 15.7923 25.6065 15.7923 25.667C15.7923 28.9577 13.1247 31.6253 9.83398 31.6253C6.54328 31.6253 3.87565 28.9577 3.87565 25.667C3.87565 25.6065 3.88766 25.5464 3.91091 25.4906L8.49424 14.4907Z" fill="white" stroke="#00BD1C" stroke-width="1.83333"/>
</svg>
