<svg width="44" height="45" viewBox="0 0 44 45" fill="none" xmlns="http://www.w3.org/2000/svg">
<path d="M40.334 26.332V18.9987C40.334 12.0848 40.334 8.62781 38.1861 6.47991C36.0383 4.33203 32.5812 4.33203 25.6673 4.33203H22.0007C15.0867 4.33203 11.6298 4.33203 9.48186 6.47991C7.33398 8.62781 7.33398 12.0848 7.33398 18.9987V26.332C7.33398 33.2459 7.33398 36.703 9.48186 38.8508C11.6298 40.9987 15.0867 40.9987 22.0007 40.9987H25.6673C32.5812 40.9987 36.0383 40.9987 38.1861 38.8508C40.334 36.703 40.334 33.2459 40.334 26.332Z" stroke="#00BD1C" stroke-width="2.75"/>
<path d="M9.16602 11.666H3.66602M9.16602 22.666H3.66602M9.16602 33.666H3.66602" stroke="#00BD1C" stroke-width="2.75" stroke-linecap="round" stroke-linejoin="round"/>
<path d="M32.0833 13.499H24.75M28.4167 20.8324H24.75" stroke="#00BD1C" stroke-width="2.75" stroke-linecap="round" stroke-linejoin="round"/>
<path d="M16.5 40.9987V4.33203" stroke="#00BD1C" stroke-width="2.75" stroke-linecap="round" stroke-linejoin="round"/>
</svg>
