<svg width="45" height="44" viewBox="0 0 45 44" fill="none" xmlns="http://www.w3.org/2000/svg">
<path d="M26.166 6.41699H18.8327C11.9187 6.41699 8.46179 6.41699 6.31389 8.56487C4.16602 10.7128 4.16602 14.1697 4.16602 21.0837V22.917C4.16602 29.8309 4.16602 33.288 6.31389 35.4357C8.46179 37.5837 11.9187 37.5837 18.8327 37.5837H26.166C33.0799 37.5837 36.537 37.5837 38.6847 35.4357C40.8327 33.288 40.8327 29.8309 40.8327 22.917V21.0837C40.8327 14.1697 40.8327 10.7128 38.6847 8.56487C36.537 6.41699 33.0799 6.41699 26.166 6.41699Z" stroke="#00BD1C" stroke-width="2.75" stroke-linejoin="round"/>
<path d="M9.66602 29.3337C11.5648 24.6017 18.6423 24.2904 20.666 29.3337" stroke="#00BD1C" stroke-width="2.75" stroke-linecap="round"/>
<path d="M18.3757 17.8753C18.3757 19.6472 16.9392 21.0837 15.1673 21.0837C13.3954 21.0837 11.959 19.6472 11.959 17.8753C11.959 16.1034 13.3954 14.667 15.1673 14.667C16.9392 14.667 18.3757 16.1034 18.3757 17.8753Z" stroke="#00BD1C" stroke-width="2.75"/>
<path d="M26.166 15.583H35.3327M26.166 21.9997H35.3327M26.166 28.4163H30.7493" stroke="#00BD1C" stroke-width="2.75" stroke-linecap="round" stroke-linejoin="round"/>
</svg>
