<svg width="45" height="44" viewBox="0 0 45 44" fill="none" xmlns="http://www.w3.org/2000/svg">
<path d="M20.334 36.6663H19.4173C12.5266 36.6663 9.08122 36.6663 6.78099 34.8497C6.41308 34.5591 6.07283 34.239 5.76412 33.8927C3.83398 31.7277 3.83398 28.4851 3.83398 21.9997C3.83398 15.5143 3.83398 12.2716 5.76412 10.1067C6.07283 9.7604 6.41308 9.44015 6.78099 9.1496C9.08122 7.33301 12.5266 7.33301 19.4173 7.33301H24.9173C31.8081 7.33301 35.2535 7.33301 37.5536 9.1496C37.9215 9.44015 38.2618 9.7604 38.5705 10.1067C40.3094 12.0572 40.4818 14.8827 40.4988 20.1663" stroke="#00BD1C" stroke-width="2.75" stroke-linecap="round" stroke-linejoin="round"/>
<path d="M3.83398 16.5H40.5007" stroke="#00BD1C" stroke-width="2.75" stroke-linejoin="round"/>
<path d="M25.834 33.0003C25.834 33.0003 27.6673 33.0003 29.5007 36.667C29.5007 36.667 35.3242 27.5003 40.5007 25.667" stroke="#00BD1C" stroke-width="2.75" stroke-linecap="round" stroke-linejoin="round"/>
</svg>
