<svg width="45" height="44" viewBox="0 0 45 44" fill="none" xmlns="http://www.w3.org/2000/svg">
<path d="M20.6667 14.667C28.7668 14.667 35.3333 12.2046 35.3333 9.16699C35.3333 6.12943 28.7668 3.66699 20.6667 3.66699C12.5665 3.66699 6 6.12943 6 9.16699C6 12.2046 12.5665 14.667 20.6667 14.667Z" stroke="#00BD1C" stroke-width="2.75" stroke-linejoin="round"/>
<path d="M20.6667 27.5C12.5665 27.5 6 25.0377 6 22" stroke="#00BD1C" stroke-width="2.75" stroke-linejoin="round"/>
<path d="M18.834 21.041C16.8504 20.9483 14.9899 20.707 13.334 20.3477M18.834 33.8744C16.8504 33.7816 14.9899 33.5403 13.334 33.181" stroke="#00BD1C" stroke-width="2.75" stroke-linejoin="round"/>
<path d="M20.6667 40.3337C12.5665 40.3337 6 37.8713 6 34.8337V9.16699M35.3333 9.16699V19.2503" stroke="#00BD1C" stroke-width="2.75" stroke-linejoin="round"/>
<path d="M36.2493 30.2497V27.4997C36.2493 25.4746 34.6078 23.833 32.5827 23.833C30.5576 23.833 28.916 25.4746 28.916 27.4997V30.2497M26.166 30.2497H38.9993V40.333H26.166V30.2497Z" stroke="#00BD1C" stroke-width="2.75"/>
</svg>
