<svg width="45" height="44" viewBox="0 0 45 44" fill="none" xmlns="http://www.w3.org/2000/svg">
<path d="M25.5833 12.833H20.0833C16.6264 12.833 14.8979 12.833 13.8239 13.907C12.75 14.9809 12.75 16.7094 12.75 20.1663V21.083C12.75 24.5399 12.75 26.2684 13.8239 27.3424C14.8979 28.4163 16.6264 28.4163 20.0833 28.4163H25.5833C29.0403 28.4163 30.7687 28.4163 31.8427 27.3424C32.9167 26.2684 32.9167 24.5399 32.9167 21.083V20.1663C32.9167 16.7094 32.9167 14.9809 31.8427 13.907C30.7687 12.833 29.0403 12.833 25.5833 12.833Z" stroke="#00BD1C" stroke-width="2.75" stroke-linecap="round" stroke-linejoin="round"/>
<path d="M17.334 12.8337V9.16699C17.334 6.12943 19.7963 3.66699 22.834 3.66699C25.8716 3.66699 28.334 6.12943 28.334 9.16699V12.8337" stroke="#00BD1C" stroke-width="2.75" stroke-linecap="round" stroke-linejoin="round"/>
<path d="M25.584 34.833L20.084 40.333M20.084 34.833L25.584 40.333" stroke="#00BD1C" stroke-width="2.75" stroke-linecap="round" stroke-linejoin="round"/>
<path d="M39.334 34.833L33.834 40.333M33.834 34.833L39.334 40.333" stroke="#00BD1C" stroke-width="2.75" stroke-linecap="round" stroke-linejoin="round"/>
<path d="M11.834 34.833L6.33398 40.333M6.33398 34.833L11.834 40.333" stroke="#00BD1C" stroke-width="2.75" stroke-linecap="round" stroke-linejoin="round"/>
</svg>
