<svg width="17" height="14" viewBox="0 0 17 14" fill="none" xmlns="http://www.w3.org/2000/svg">
<path d="M1.83334 3.53207L1.5 3.41421V3.76777V12C1.5 12.2321 1.59219 12.4546 1.75628 12.6187C1.92038 12.7828 2.14294 12.875 2.375 12.875H14.875H15.125V12.625V3.875V3.625H14.875H2.375C2.18869 3.625 2.0057 3.59301 1.83334 3.53207ZM12.75 8.25C12.75 8.6297 12.4422 8.9375 12.0625 8.9375C11.6828 8.9375 11.375 8.6297 11.375 8.25C11.375 7.8703 11.6828 7.5625 12.0625 7.5625C12.4422 7.5625 12.75 7.8703 12.75 8.25ZM2.375 1.125C2.14294 1.125 1.92038 1.21719 1.75628 1.38128C1.59219 1.54538 1.5 1.76794 1.5 2C1.5 2.23206 1.59219 2.45462 1.75628 2.61872C1.92038 2.78281 2.14294 2.875 2.375 2.875H14.875C15.1402 2.875 15.3946 2.98036 15.5821 3.16789C15.7696 3.35543 15.875 3.60978 15.875 3.875V12.625C15.875 12.8902 15.7696 13.1446 15.5821 13.3321C15.3946 13.5196 15.1402 13.625 14.875 13.625H2.375C1.94402 13.625 1.5307 13.4538 1.22595 13.149C0.921205 12.8443 0.75 12.431 0.75 12V2C0.75 1.56902 0.921205 1.1557 1.22595 0.850951C1.5307 0.546205 1.94402 0.375 2.375 0.375H13C13.2071 0.375 13.375 0.542893 13.375 0.75C13.375 0.957107 13.2071 1.125 13 1.125H2.375Z" fill="#262626" stroke="black" stroke-width="0.5"/>
</svg>
