<svg width="1440" height="175" viewBox="0 0 1440 175" fill="none" xmlns="http://www.w3.org/2000/svg">
<g clip-path="url(#clip0_662_100353)">
<rect y="128" width="18" height="47" fill="#E3E3E3"/>
<rect x="26" y="163" width="18" height="12" fill="#E3E3E3"/>
<rect x="52" y="128" width="18" height="47" fill="#E3E3E3"/>
<rect x="78" y="163" width="18" height="12" fill="#E3E3E3"/>
<rect x="104" y="128" width="18" height="47" fill="#E3E3E3"/>
<rect x="130" y="163" width="18" height="12" fill="#E3E3E3"/>
<rect x="156" y="128" width="18" height="47" fill="#E3E3E3"/>
<rect x="182" y="81" width="18" height="94" fill="#E3E3E3"/>
<rect x="208" y="128" width="18" height="47" fill="#E3E3E3"/>
<rect x="234" y="81" width="18" height="94" fill="#E3E3E3"/>
<rect x="260" y="163" width="18" height="12" fill="#E3E3E3"/>
<rect x="286" y="155" width="18" height="20" fill="#E3E3E3"/>
<rect x="312" y="163" width="18" height="12" fill="#E3E3E3"/>
<rect x="338" y="102" width="18" height="73" fill="#E3E3E3"/>
<rect x="364" y="81" width="18" height="94" fill="#E3E3E3"/>
<rect x="390" y="102" width="18" height="73" fill="#E3E3E3"/>
<rect x="416" y="128" width="18" height="47" fill="#E3E3E3"/>
<rect x="442" y="30" width="18" height="145" fill="#E3E3E3"/>
<rect x="468" y="128" width="18" height="47" fill="#E3E3E3"/>
<rect x="494" y="102" width="18" height="73" fill="#E3E3E3"/>
<rect x="520" y="81" width="18" height="94" fill="#E3E3E3"/>
<rect x="546" y="102" width="18" height="73" fill="#E3E3E3"/>
<rect x="572" y="81" width="18" height="94" fill="#E3E3E3"/>
<rect x="598" y="102" width="18" height="73" fill="#E3E3E3"/>
<rect x="624" y="128" width="18" height="47" fill="#E3E3E3"/>
<rect x="650" y="102" width="18" height="73" fill="#E3E3E3"/>
<rect x="676" y="89" width="18" height="86" fill="#E3E3E3"/>
<rect x="702" y="42" width="18" height="133" fill="#E3E3E3"/>
<rect x="728" y="89" width="18" height="86" fill="#E3E3E3"/>
<rect x="754" y="146" width="18" height="29" fill="#E3E3E3"/>
<rect x="780" y="63" width="18" height="112" fill="#E3E3E3"/>
<rect x="806" y="163" width="18" height="12" fill="#E3E3E3"/>
<rect x="832" y="128" width="18" height="47" fill="#E3E3E3"/>
<rect x="858" y="163" width="18" height="12" fill="#E3E3E3"/>
<rect x="884" y="128" width="18" height="47" fill="#E3E3E3"/>
<rect x="910" y="81" width="18" height="94" fill="#E3E3E3"/>
<rect x="936" y="128" width="18" height="47" fill="#E3E3E3"/>
<rect x="962" y="81" width="18" height="94" fill="#E3E3E3"/>
<rect x="988" y="163" width="18" height="12" fill="#E3E3E3"/>
<rect x="1014" y="155" width="18" height="20" fill="#E3E3E3"/>
<rect x="1040" y="163" width="18" height="12" fill="#E3E3E3"/>
<rect x="1066" y="102" width="18" height="73" fill="#E3E3E3"/>
<rect x="1092" y="81" width="18" height="94" fill="#E3E3E3"/>
<rect x="1118" y="102" width="18" height="73" fill="#E3E3E3"/>
<rect x="1144" y="128" width="18" height="47" fill="#E3E3E3"/>
<rect x="1170" y="30" width="18" height="145" fill="#E3E3E3"/>
<rect x="1196" y="128" width="18" height="47" fill="#E3E3E3"/>
<rect x="1222" y="102" width="18" height="73" fill="#E3E3E3"/>
<rect x="1248" y="81" width="18" height="94" fill="#E3E3E3"/>
<rect x="1274" width="18" height="175" fill="#E3E3E3"/>
<rect x="1300" y="36" width="18" height="139" fill="#E3E3E3"/>
<rect x="1326" y="102" width="18" height="73" fill="#E3E3E3"/>
<rect x="1352" y="128" width="18" height="47" fill="#E3E3E3"/>
<rect x="1378" y="102" width="18" height="73" fill="#E3E3E3"/>
<rect x="1404" y="128" width="18" height="47" fill="#E3E3E3"/>
<rect x="1430" y="102" width="18" height="73" fill="#E3E3E3"/>
</g>
<defs>
<clipPath id="clip0_662_100353">
<rect width="1440" height="175" fill="white"/>
</clipPath>
</defs>
</svg>
